<svg xmlns="http://www.w3.org/2000/svg" width="1666.08" height="225.63"><g fill="#535352"><path d="M524.15 171.33c0 2.41-.86 4.48-2.59 6.21-1.72 1.72-3.85 2.59-6.38 2.59-1.72 0-3.36-.49-4.91-1.47-1.55-.97-2.67-2.33-3.36-4.05l-9.65-24.13h-61.88l-9.83 24.13c-.81 1.72-1.96 3.08-3.45 4.05-1.49.98-3.1 1.47-4.83 1.47-2.53 0-4.63-.89-6.29-2.67-1.67-1.78-2.5-3.88-2.5-6.29 0-1.15.29-2.47.86-3.96l48.44-115.67c1.72-4.02 4.54-6.03 8.45-6.03 4.14 0 6.95 2.01 8.45 6.03l48.61 116.01c.57 1.49.86 2.76.86 3.79Zm-32.92-35.68-24.65-61.37-25.17 61.37h49.82ZM641.54 48c1.72-1.66 3.85-2.5 6.38-2.5s4.62.83 6.29 2.5c1.66 1.67 2.5 3.82 2.5 6.46v116.7c0 2.64-.84 4.8-2.5 6.46-1.67 1.67-3.77 2.5-6.29 2.5-1.27 0-2.56-.26-3.88-.78-1.32-.52-2.33-1.29-3.02-2.33l-75.16-99.98v94.12c0 2.53-.84 4.65-2.5 6.38-1.67 1.72-3.82 2.59-6.46 2.59s-4.63-.83-6.29-2.5c-1.67-1.66-2.5-3.82-2.5-6.46V54.46c0-2.64.83-4.8 2.5-6.46 1.66-1.66 3.76-2.5 6.29-2.5 1.26 0 2.53.32 3.79.95 1.26.63 2.3 1.41 3.1 2.33l75.16 99.98v-94.3c0-2.64.86-4.8 2.59-6.46ZM710.83 177.54c-1.72 1.72-3.85 2.59-6.38 2.59s-4.51-.86-6.29-2.59c-1.78-1.72-2.67-3.85-2.67-6.38V54.46c0-2.53.89-4.65 2.67-6.38 1.78-1.72 3.88-2.58 6.29-2.58s4.65.86 6.38 2.58 2.59 3.85 2.59 6.38v51.71l57.06-57.06c1.38-1.38 2.61-2.33 3.71-2.84 1.09-.52 2.33-.78 3.71-.78 2.41 0 4.28.72 5.6 2.15 1.32 1.44 1.98 3.19 1.98 5.26 0 2.99-1.09 5.58-3.27 7.76l-43.96 44.13 44.82 61.02c1.15 1.61 1.72 3.45 1.72 5.52 0 2.3-.75 4.34-2.24 6.12-1.49 1.78-3.39 2.67-5.69 2.67-3.22 0-5.69-1.26-7.41-3.79l-43.61-59.12-12.41 12.41v41.54c0 2.53-.86 4.65-2.59 6.38ZM908.03 165.82c1.61 1.5 2.41 3.45 2.41 5.86s-.81 4.57-2.41 6.12c-1.61 1.55-3.74 2.33-6.38 2.33h-77.91c-2.53 0-4.65-.86-6.38-2.59-1.72-1.72-2.59-3.85-2.59-6.38V54.46c0-2.64.86-4.8 2.59-6.46 1.72-1.66 3.85-2.5 6.38-2.5h77.91c2.64 0 4.77.78 6.38 2.33 1.61 1.55 2.41 3.59 2.41 6.12s-.81 4.37-2.41 5.86c-1.61 1.49-3.74 2.24-6.38 2.24H832.7v41.89h49.47c2.53 0 4.62.78 6.29 2.33 1.66 1.55 2.5 3.53 2.5 5.95s-.83 4.4-2.5 5.95c-1.67 1.55-3.77 2.33-6.29 2.33H832.7v43.09h68.95c2.64 0 4.77.75 6.38 2.24ZM1028.86 172.02c0 2.3-.78 4.22-2.33 5.77-1.55 1.55-3.65 2.33-6.29 2.33-3.33 0-5.92-1.44-7.76-4.31l-29.65-47.58h-25.17v42.92c0 2.53-.83 4.65-2.5 6.38-1.67 1.72-3.82 2.59-6.46 2.59s-4.65-.86-6.38-2.59c-1.72-1.72-2.59-3.85-2.59-6.38V54.46c0-2.64.86-4.8 2.59-6.46 1.72-1.66 3.85-2.5 6.38-2.5h31.03c8.5 0 16.12 1.78 22.84 5.34 6.72 3.56 11.95 8.56 15.69 15 3.73 6.44 5.6 13.79 5.6 22.06s-2.07 15.4-6.21 21.72c-4.14 6.32-9.77 11.09-16.89 14.31l26.37 42.41c1.15 1.84 1.72 3.74 1.72 5.69Zm-49.13-60.33c7.81 0 14.25-2.21 19.31-6.64 5.06-4.42 7.58-10.14 7.58-17.15 0-7.58-2.53-13.79-7.58-18.62-5.06-4.83-11.49-7.24-19.31-7.24h-22.06v49.64h22.06ZM1139.73 46.71c6.38 2.3 12.84 6.09 19.39 11.38 1.38 1.03 2.3 2.1 2.76 3.19.46 1.09.69 2.39.69 3.88 0 2.3-.84 4.2-2.5 5.69-1.67 1.5-3.59 2.24-5.77 2.24s-4.2-.75-6.03-2.24c-4.71-4.02-9.31-6.92-13.79-8.71-4.48-1.78-10.29-2.67-17.41-2.67-8.96 0-17.21 2.36-24.74 7.07-7.53 4.71-13.5 11.12-17.93 19.22s-6.64 16.92-6.64 26.46 2.21 18.5 6.64 26.55c4.42 8.05 10.4 14.42 17.93 19.13 7.53 4.71 15.77 7.07 24.74 7.07 11.03 0 21.6-3.79 31.72-11.38 1.95-1.38 3.85-2.07 5.69-2.07 2.18 0 3.99.78 5.43 2.33 1.44 1.55 2.15 3.59 2.15 6.12s-.92 4.54-2.76 6.38c-12.41 10-26.49 15-42.23 15-12.3 0-23.53-3.04-33.7-9.14-10.17-6.09-18.19-14.42-24.05-24.99-5.86-10.57-8.79-22.24-8.79-34.99s2.93-24.22 8.79-34.73c5.86-10.51 13.88-18.85 24.05-24.99 10.17-6.15 21.4-9.22 33.7-9.22 8.73 0 16.29 1.15 22.67 3.45ZM1268.58 164.27c1.72 1.72 2.59 3.85 2.59 6.38s-.86 4.65-2.59 6.38c-1.72 1.72-3.85 2.59-6.38 2.59h-71.36c-2.53 0-4.63-.86-6.29-2.59-1.67-1.72-2.5-3.85-2.5-6.38V53.95c0-2.53.86-4.65 2.59-6.38s3.79-2.59 6.21-2.59 4.65.86 6.38 2.59c1.72 1.72 2.59 3.85 2.59 6.38v107.73h62.4c2.53 0 4.65.86 6.38 2.59ZM1369.68 52.05c10.4 5.86 18.5 14.02 24.31 24.48 5.8 10.46 8.7 22.35 8.7 35.68s-2.9 25.25-8.7 35.77c-5.81 10.52-13.88 18.7-24.22 24.56-10.34 5.86-22.18 8.79-35.51 8.79s-25.2-2.93-35.6-8.79c-10.4-5.86-18.47-14.05-24.22-24.56-5.75-10.51-8.62-22.44-8.62-35.77s2.87-25.22 8.62-35.68c5.74-10.46 13.82-18.62 24.22-24.48 10.4-5.86 22.26-8.79 35.6-8.79s25.02 2.93 35.42 8.79Zm-61.88 14.31c-7.76 4.6-13.82 10.92-18.19 18.96-4.37 8.05-6.55 17.01-6.55 26.89s2.18 18.85 6.55 26.89c4.37 8.05 10.46 14.39 18.27 19.05 7.81 4.65 16.6 6.98 26.37 6.98s18.56-2.33 26.37-6.98c7.81-4.65 13.9-11 18.27-19.05 4.37-8.04 6.55-17.01 6.55-26.89s-2.19-18.85-6.55-26.89c-4.37-8.04-10.43-14.36-18.19-18.96-7.76-4.59-16.58-6.9-26.46-6.9s-18.7 2.3-26.46 6.9ZM1424.75 47.48c1.72-1.66 3.85-2.5 6.38-2.5s4.8.83 6.46 2.5c1.66 1.67 2.5 3.82 2.5 6.46v80.5c0 6.09 1.64 11.55 4.91 16.38 3.28 4.83 7.81 8.59 13.62 11.29 5.8 2.7 12.44 4.05 19.91 4.05s13.5-1.35 19.13-4.05c5.63-2.7 10.02-6.46 13.19-11.29 3.16-4.83 4.74-10.28 4.74-16.38V53.95c0-2.64.86-4.8 2.59-6.46 1.72-1.66 3.85-2.5 6.38-2.5s4.62.83 6.29 2.5c1.66 1.67 2.5 3.82 2.5 6.46v80.5c0 9.2-2.33 17.44-6.98 24.74-4.65 7.3-11.15 12.99-19.48 17.07s-17.78 6.12-28.36 6.12-20.66-2.04-29.22-6.12c-8.56-4.08-15.23-9.74-20-16.98s-7.15-15.51-7.15-24.82V53.95c0-2.64.86-4.8 2.59-6.46ZM1634.02 53.6c10.11 5.75 17.98 13.7 23.62 23.87 5.63 10.17 8.45 21.75 8.45 34.73s-2.82 24.59-8.45 34.82c-5.63 10.23-13.5 18.21-23.62 23.96-10.11 5.75-21.66 8.62-34.65 8.62h-31.2c-2.53 0-4.65-.86-6.38-2.59-1.72-1.72-2.59-3.85-2.59-6.38V53.95c0-2.64.86-4.8 2.59-6.46 1.72-1.66 3.85-2.5 6.38-2.5h31.2c12.98 0 24.53 2.87 34.65 8.62Zm-9.05 103.6c7.53-4.37 13.39-10.49 17.58-18.36 4.19-7.87 6.29-16.75 6.29-26.63s-2.1-18.73-6.29-26.55c-4.2-7.81-10.06-13.9-17.58-18.27-7.53-4.37-16.06-6.55-25.6-6.55h-22.24v102.91h22.24c9.54 0 18.07-2.18 25.6-6.55Z"/></g><g fill="#00b3bd"><path d="M326.86 111.76c-12.17-13.02-26.8-19.97-44.74-21.25l-5.46-.39-1.08-5.37c-4.8-23.97-16.98-44.32-36.17-60.47C220.24 8.17 197.71 0 172.46 0c-20.06 0-38.62 5.19-55.17 15.42-16.54 10.23-29.35 24.25-38.05 41.66l-1.76 3.52-3.92.41C52.71 63.19 35.6 71.85 21.27 87.49 6.96 103.11 0 121.26 0 142.99c0 23.02 7.92 42.14 24.21 58.43s35.4 24.21 58.43 24.21h194.38c18.77 0 34.44-6.54 47.9-20s20-29.13 20-47.9-5.91-32.95-18.06-45.97Zm-115.14 79.96H133.2v-11.29h78.52v11.29Zm-39.39-19.89L133.2 132.7h34.16v-27.95h-17.23V94.41h17.36v-6.77c-7.46-2.06-12.94-8.91-12.94-17.03 0-9.73 7.93-17.65 17.66-17.65s17.66 7.92 17.66 17.65c0 7.78-5.04 14.39-12.03 16.76v7.04h16.6v10.34h-16.32v27.95h33.59l-39.39 39.13Z"/><path d="M172.22 63.29c-4.03 0-7.31 3.28-7.31 7.3s3.28 7.33 7.31 7.33 7.31-3.29 7.31-7.33-3.28-7.3-7.31-7.3Z"/></g></svg>